HIERARCHY
ROOT Hips
{
 OFFSET 0.000000 0.000000 0.000000
 CHANNELS 6 Xposition Yposition Zposition Yrotation Xrotation Zrotation
 JOINT Chest
 {
  OFFSET 0.000000 9.585900 0.002600
  CHANNELS 3 Yrotation Xrotation Zrotation
  JOINT Chest2
  {
   OFFSET 0.000000 9.601200 -0.005300
   CHANNELS 3 Yrotation Xrotation Zrotation
   JOINT Chest3
   {
    OFFSET 0.000000 9.561800 0.000000
    CHANNELS 3 Yrotation Xrotation Zrotation
    JOINT Chest4
    {
     OFFSET 0.000000 9.552100 0.000000
     CHANNELS 3 Yrotation Xrotation Zrotation
     JOINT Neck
     {
      OFFSET 0.000000 14.453000 0.000000
      CHANNELS 3 Yrotation Xrotation Zrotation
      JOINT Head
      {
       OFFSET 0.000000 8.936500 -0.011300
       CHANNELS 3 Yrotation Xrotation Zrotation
       End Site
       {
        OFFSET 0.000000 17.073600 -0.006000
       }
      }
     }
     JOINT RightCollar
     {
      OFFSET -2.921100 9.558500 0.000000
      CHANNELS 3 Yrotation Xrotation Zrotation
      JOINT RightShoulder
      {
       OFFSET -13.519700 0.000000 0.000000
       CHANNELS 3 Yrotation Xrotation Zrotation
       JOINT RightElbow
       {
        OFFSET 0.000000 -29.696600 0.000000
        CHANNELS 3 Yrotation Xrotation Zrotation
        JOINT RightWrist
        {
         OFFSET 0.000000 -24.004700 0.000000
         CHANNELS 3 Yrotation Xrotation Zrotation
         End Site
         {
          OFFSET 0.000000 -17.728500 0.000000
         }
        }
       }
      }
     }
     JOINT LeftCollar
     {
      OFFSET 2.921100 9.558500 0.000000
      CHANNELS 3 Yrotation Xrotation Zrotation
      JOINT LeftShoulder
      {
       OFFSET 13.519700 0.000000 0.000000
       CHANNELS 3 Yrotation Xrotation Zrotation
       JOINT LeftElbow
       {
        OFFSET 0.000000 -29.696600 0.000000
        CHANNELS 3 Yrotation Xrotation Zrotation
        JOINT LeftWrist
        {
         OFFSET 0.000000 -24.004700 0.000000
         CHANNELS 3 Yrotation Xrotation Zrotation
         End Site
         {
          OFFSET 0.000000 -17.728500 0.000000
         }
        }
       }
      }
     }
    }
   }
  }
 }
 JOINT RightHip
 {
  OFFSET -7.771700 -0.012900 -0.001300
  CHANNELS 3 Yrotation Xrotation Zrotation
  JOINT RightKnee
  {
   OFFSET 0.000000 -40.869800 0.001200
   CHANNELS 3 Yrotation Xrotation Zrotation
   JOINT RightAnkle
   {
    OFFSET 0.000000 -39.717900 0.002100
    CHANNELS 3 Yrotation Xrotation Zrotation
    JOINT RightToe
    {
     OFFSET 0.000000 -4.965400 11.033500
     CHANNELS 3 Yrotation Xrotation Zrotation
     End Site
     {
      OFFSET 0.000000 -1.423100 5.872300
     }
    }
   }
  }
 }
 JOINT LeftHip
 {
  OFFSET 7.771700 -0.012900 -0.001300
  CHANNELS 3 Yrotation Xrotation Zrotation
  JOINT LeftKnee
  {
   OFFSET 0.000000 -40.869800 0.001200
   CHANNELS 3 Yrotation Xrotation Zrotation
   JOINT LeftAnkle
   {
    OFFSET 0.000000 -39.717900 0.002100
    CHANNELS 3 Yrotation Xrotation Zrotation
    JOINT LeftToe
    {
     OFFSET 0.000000 -4.965400 11.033500
     CHANNELS 3 Yrotation Xrotation Zrotation
     End Site
     {
      OFFSET 0.000000 -1.423100 5.872300
     }
    }
   }
  }
 }
}
MOTION
Frames: 11
Frame Time: 0.008333
-4.732380 52.403532 31.663542 170.121590 -38.416068 -1.466072 3.777662 21.369144 2.220943 0.417105 2.905671 0.382684 0.693904 4.731063 0.640330 3.028897 18.124397 2.836570 1.988479 14.880980 -0.776600 4.082013 -8.134997 -2.163845 -4.525800 -3.568881 -3.863598 -4.832030 -1.207505 1.722852 -141.483145 -79.647139 158.158974 14.666677 17.862992 34.696333 -5.108276 -0.327941 0.632781 12.894526 -4.296295 3.898577 129.249743 -70.988550 -142.855941 -19.041991 17.210090 -55.475029 -3.581292 -43.037065 2.046645 -135.240821 86.390998 -130.351693 1.135052 -9.432361 -3.518141 0.433592 -0.760944 0.194078 0.463452 -39.285477 6.243568 72.398992 83.145133 62.268528 -5.855703 -12.492744 9.109656 0.459106 1.440791 0.174262
-4.732933 52.396400 31.657920 170.111258 -38.407143 -1.469472 3.792802 21.367592 2.239888 0.419046 2.906038 0.384455 0.692355 4.727102 0.637046 3.035444 18.123769 2.842785 1.959592 14.885660 -0.792588 3.939999 -8.106731 -2.241159 -4.501843 -3.617213 -3.876933 -4.710202 -1.137865 1.577156 -145.384538 -79.751082 162.104690 14.311303 17.486610 33.677423 -5.125016 -0.345992 0.627223 12.589600 -4.387196 4.050955 129.627566 -71.177375 -143.137967 -17.828586 16.518060 -53.373830 -3.582130 -43.047493 2.058419 -135.350440 86.386628 -130.459497 1.136386 -9.440488 -3.521377 0.432658 -0.761522 0.196314 0.449921 -39.298007 6.241704 72.518376 83.138500 62.397082 -5.834572 -12.502938 9.094526 0.454386 1.440491 0.172155
-4.733559 52.389444 31.652376 170.101327 -38.398542 -1.474219 3.807209 21.368441 2.267860 0.421855 2.911203 0.395730 0.689343 4.719191 0.625084 3.043818 18.123611 2.855736 1.917869 14.891442 -0.814943 3.848612 -8.090314 -2.288769 -4.480140 -3.660986 -3.894649 -4.580900 -1.089622 1.446963 -149.226957 -79.823560 165.975660 13.948223 17.111751 32.585374 -5.149612 -0.403894 0.621951 12.290001 -4.439846 4.169483 130.305326 -71.427467 -143.692975 -16.671871 15.682530 -51.252567 -3.585263 -43.057253 2.071113 -135.437335 86.381229 -130.542926 1.138413 -9.450090 -3.526932 0.433426 -0.761172 0.198177 0.442674 -39.309222 6.247284 72.589529 83.141849 62.478128 -5.837155 -12.511432 9.089795 0.459094 1.444062 0.174918
-4.734479 52.382244 31.647607 170.100764 -38.385070 -1.484184 3.813151 21.358701 2.284607 0.421143 2.915282 0.407332 0.695503 4.726146 0.642600 3.042223 18.116496 2.851887 1.871951 14.901831 -0.831960 3.789799 -8.076151 -2.322932 -4.462689 -3.693846 -3.905130 -4.444202 -1.064886 1.334004 -152.973964 -79.871217 169.731932 13.565890 16.722706 31.445723 -5.167047 -0.457168 0.615532 11.993863 -4.490878 4.254480 131.275085 -71.724459 -144.516130 -15.594961 14.726556 -49.147256 -3.598978 -43.069234 2.082712 -135.594032 86.381208 -130.696410 1.137374 -9.465836 -3.533952 0.435127 -0.754942 0.198719 0.429683 -39.326103 6.250472 72.657696 83.143207 62.554649 -5.833613 -12.519759 9.094704 0.462713 1.448829 0.169194
-4.736855 52.376643 31.641059 170.105711 -38.384955 -1.486682 3.809015 21.368437 2.300044 0.419314 2.912311 0.408416 0.696164 4.721915 0.630983 3.053273 18.119313 2.887995 1.833492 14.914032 -0.855006 3.735707 -8.051133 -2.349998 -4.451444 -3.713900 -3.925675 -4.291362 -1.061427 1.249961 -156.639139 -79.893669 173.381476 13.165661 16.303738 30.266181 -5.183557 -0.529514 0.611406 11.716260 -4.509395 4.298332 132.514146 -72.051297 -145.590609 -14.605958 13.677044 -47.069081 -3.601799 -43.067873 2.069024 -135.709176 86.371678 -130.798239 1.143170 -9.483756 -3.550515 0.442515 -0.754996 0.202429 0.423705 -39.327366 6.233708 72.726497 83.138658 62.634237 -5.822191 -12.529415 9.086931 0.464305 1.455835 0.181825
-4.738028 52.370516 31.636075 170.102318 -38.378067 -1.491655 3.813262 21.367917 2.322508 0.418058 2.908166 0.400615 0.697832 4.725370 0.645520 3.053977 18.121053 2.936821 1.791561 14.930187 -0.909287 3.693081 -8.017661 -2.371008 -4.448622 -3.729144 -3.988810 -4.120045 -1.075212 1.206306 -160.198699 -79.893744 176.906032 12.755567 15.852255 29.050486 -5.191334 -0.549626 0.547031 11.443508 -4.577477 4.327284 133.968840 -72.394776 -146.865468 -13.707889 12.558387 -45.004262 -3.600601 -43.073923 2.065942 -135.794900 86.366455 -130.872799 1.155927 -9.496476 -3.557180 0.439130 -0.750385 0.201092 0.420683 -39.337225 6.228178 72.810060 83.135014 62.730482 -5.816760 -12.540256 9.078881 0.457735 1.461442 0.186823
-4.739676 52.365033 31.630860 170.092898 -38.376383 -1.488450 3.814443 21.371145 2.339569 0.421367 2.905252 0.390304 0.695024 4.727754 0.656256 3.051346 18.122467 2.949744 1.771979 14.953283 -0.922584 3.660601 -7.975012 -2.387661 -4.424680 -3.736101 -3.996664 -3.962178 -1.098611 1.168045 -163.582491 -79.880190 -179.756044 12.335200 15.366539 27.809167 -5.204370 -0.569318 0.531410 11.190108 -4.624263 4.317971 135.588909 -72.741684 -148.295776 -12.898350 11.397596 -42.931048 -3.587629 -43.073203 2.054457 -135.913217 86.368781 -130.979569 1.164481 -9.513724 -3.560004 0.433246 -0.740090 0.197197 0.421314 -39.339598 6.216676 72.899755 83.126439 62.829841 -5.815045 -12.551841 9.086523 0.453367 1.467273 0.175195
-4.740311 52.359822 31.626187 170.103157 -38.376836 -1.502385 3.808239 21.372805 2.353263 0.415719 2.909113 0.409652 0.692963 4.730169 0.661956 3.044386 18.121816 2.947783 1.757191 14.981439 -0.933857 3.636248 -7.922760 -2.402181 -4.369257 -3.704932 -3.952428 -3.846728 -1.167119 1.097172 -166.703120 -79.865903 -176.684956 11.898531 14.833676 26.558795 -5.227461 -0.571847 0.517074 10.950671 -4.673451 4.278039 137.340996 -73.076228 -149.853751 -12.171282 10.229186 -40.839135 -3.599182 -43.066856 2.052620 -135.963150 86.367829 -131.016293 1.170249 -9.532829 -3.570543 0.431109 -0.731956 0.196998 0.405928 -39.339538 6.223824 72.943826 83.129027 62.876149 -5.820400 -12.563285 9.085568 0.462533 1.475022 0.182273
-4.741508 52.354706 31.621959 170.106542 -38.379579 -1.507453 3.798525 21.376514 2.377693 0.421064 2.909046 0.389288 0.689295 4.733037 0.676463 3.038484 18.122726 2.958372 1.749449 14.996564 -0.954883 3.616225 -7.842838 -2.402026 -4.343246 -3.682630 -3.933388 -3.722792 -1.232214 1.071352 -169.490080 -79.857967 -173.940442 11.450608 14.249190 25.306604 -5.261021 -0.568966 0.502518 10.727231 -4.713113 4.217914 139.162312 -73.384508 -151.479704 -11.511075 9.093643 -38.723302 -3.599239 -43.060363 2.041680 -136.111465 86.370709 -131.148126 1.165592 -9.549978 -3.580891 0.435945 -0.724542 0.195381 0.398564 -39.337664 6.219840 73.002388 83.127907 62.935719 -5.805670 -12.574521 9.086242 0.458250 1.478688 0.182325
-4.741707 52.349536 31.618758 170.108460 -38.383504 -1.516670 3.798253 21.378081 2.394839 0.418906 2.912273 0.394368 0.690663 4.732780 0.666558 3.031997 18.120994 2.979227 1.742320 15.044913 -0.956207 3.608469 -7.779198 -2.419185 -4.321234 -3.650967 -3.903920 -3.615107 -1.309053 1.055988 -171.862106 -79.856543 -171.594476 11.003326 13.629481 24.040441 -5.299998 -0.551845 0.485001 10.512896 -4.751086 4.147274 140.984727 -73.658882 -153.108950 -10.883501 8.015596 -36.557224 -3.602711 -43.053281 2.043130 -136.223119 86.376079 -131.250558 1.166576 -9.561362 -3.584651 0.429669 -0.718708 0.192819 0.383272 -39.333603 6.223854 73.032332 83.131035 62.965963 -5.785309 -12.592873 9.088582 0.451221 1.489690 0.174878
-4.742456 52.344859 31.615716 170.105053 -38.393998 -1.517458 3.802186 21.385455 2.404128 0.415470 2.913990 0.399373 0.688551 4.732976 0.669712 3.025127 18.117405 2.985404 1.737650 15.097958 -0.956407 3.603883 -7.706477 -2.432626 -4.304376 -3.610460 -3.864719 -3.512613 -1.395020 1.051420 -173.742895 -79.868491 -169.724417 10.556064 12.990499 22.749106 -5.396614 -0.513968 0.468843 10.353158 -4.794702 4.065295 142.772001 -73.895931 -154.704512 -10.252095 6.980516 -34.301219 -3.592761 -43.041399 2.039461 -136.274409 86.376443 -131.293937 1.164292 -9.572570 -3.584766 0.429214 -0.712353 0.192197 0.369339 -39.320940 6.223449 73.054020 83.135050 62.979525 -5.748706 -12.612552 9.094436 0.424535 1.499090 0.167616
